# Wavefront OBJ file automatically generated by Tiled2Unity

# Vertices (Count = 315)
v -3420 -780 0
v -3450 -780 0
v -3450 -750 0
v -3420 -750 0
v -3480 -780 0
v -3480 -750 0
v -3510 -780 0
v -3510 -750 0
v -3540 -780 0
v -3540 -750 0
v -3570 -780 0
v -3570 -750 0
v -3600 -780 0
v -3600 -750 0
v -3630 -780 0
v -3630 -750 0
v -3660 -780 0
v -3660 -750 0
v -3690 -780 0
v -3690 -750 0
v -3720 -780 0
v -3720 -750 0
v -3750 -780 0
v -3750 -750 0
v -3780 -780 0
v -3780 -750 0
v -3810 -780 0
v -3810 -750 0
v -3840 -780 0
v -3840 -750 0
v -3870 -780 0
v -3870 -750 0
v -3900 -780 0
v -3900 -750 0
v -3930 -780 0
v -3930 -750 0
v -3960 -780 0
v -3960 -750 0
v -3990 -780 0
v -3990 -750 0
v -4020 -780 0
v -4020 -750 0
v -4050 -780 0
v -4050 -750 0
v -4080 -780 0
v -4080 -750 0
v -4110 -780 0
v -4110 -750 0
v -4140 -780 0
v -4140 -750 0
v -4170 -780 0
v -4170 -750 0
v -4200 -780 0
v -4200 -750 0
v -4230 -780 0
v -4230 -750 0
v -4260 -780 0
v -4260 -750 0
v -4290 -780 0
v -4290 -750 0
v -4320 -780 0
v -4320 -750 0
v -4350 -780 0
v -4350 -750 0
v -4380 -780 0
v -4380 -750 0
v -4410 -780 0
v -4410 -750 0
v -4440 -780 0
v -4440 -750 0
v -4470 -780 0
v -4470 -750 0
v -4500 -780 0
v -4500 -750 0
v -4530 -780 0
v -4530 -750 0
v -4560 -780 0
v -4560 -750 0
v -4590 -780 0
v -4590 -750 0
v -4620 -780 0
v -4620 -750 0
v -4650 -780 0
v -4650 -750 0
v -4680 -780 0
v -4680 -750 0
v -4710 -780 0
v -4710 -750 0
v -4740 -780 0
v -4740 -750 0
v -3450 -720 0
v -3420 -720 0
v -3480 -720 0
v -3510 -720 0
v -3540 -720 0
v -3570 -720 0
v -3600 -720 0
v -3630 -720 0
v -3660 -720 0
v -3690 -720 0
v -3720 -720 0
v -3750 -720 0
v -3780 -720 0
v -3810 -720 0
v -3840 -720 0
v -3870 -720 0
v -3900 -720 0
v -3930 -720 0
v -3960 -720 0
v -3990 -720 0
v -4020 -720 0
v -4050 -720 0
v -4080 -720 0
v -4110 -720 0
v -4140 -720 0
v -4170 -720 0
v -4200 -720 0
v -4230 -720 0
v -4260 -720 0
v -4290 -720 0
v -4320 -720 0
v -4350 -720 0
v -4380 -720 0
v -4410 -720 0
v -4440 -720 0
v -4470 -720 0
v -4500 -720 0
v -4530 -720 0
v -4560 -720 0
v -4590 -720 0
v -4620 -720 0
v -4650 -720 0
v -4680 -720 0
v -4710 -720 0
v -4740 -720 0
v -3420 -810 0
v -3450 -810 0
v -3480 -810 0
v -3510 -810 0
v -3540 -810 0
v -3570 -810 0
v -3600 -810 0
v -3630 -810 0
v -3660 -810 0
v -3690 -810 0
v -3720 -810 0
v -3750 -810 0
v -3780 -810 0
v -3810 -810 0
v -3840 -810 0
v -3870 -810 0
v -3900 -810 0
v -3930 -810 0
v -3960 -810 0
v -3990 -810 0
v -4020 -810 0
v -4050 -810 0
v -4080 -810 0
v -4110 -810 0
v -4140 -810 0
v -4170 -810 0
v -4200 -810 0
v -4230 -810 0
v -4260 -810 0
v -4290 -810 0
v -4320 -810 0
v -4350 -810 0
v -4380 -810 0
v -4410 -810 0
v -4440 -810 0
v -4470 -810 0
v -4500 -810 0
v -4530 -810 0
v -4560 -810 0
v -4590 -810 0
v -4620 -810 0
v -4650 -810 0
v -4680 -810 0
v -4710 -810 0
v -4740 -810 0
v -3420 -840 0
v -3450 -840 0
v -3480 -840 0
v -3510 -840 0
v -3540 -840 0
v -3570 -840 0
v -3600 -840 0
v -3630 -840 0
v -3660 -840 0
v -3690 -840 0
v -3720 -840 0
v -3750 -840 0
v -3780 -840 0
v -3810 -840 0
v -3840 -840 0
v -3870 -840 0
v -3900 -840 0
v -3930 -840 0
v -3960 -840 0
v -3990 -840 0
v -4020 -840 0
v -4050 -840 0
v -4080 -840 0
v -4110 -840 0
v -4140 -840 0
v -4170 -840 0
v -4200 -840 0
v -4230 -840 0
v -4260 -840 0
v -4290 -840 0
v -4320 -840 0
v -4350 -840 0
v -4380 -840 0
v -4410 -840 0
v -4440 -840 0
v -4470 -840 0
v -4500 -840 0
v -4530 -840 0
v -4560 -840 0
v -4590 -840 0
v -4620 -840 0
v -4650 -840 0
v -4680 -840 0
v -4710 -840 0
v -4740 -840 0
v -3420 -870 0
v -3450 -870 0
v -3480 -870 0
v -3510 -870 0
v -3540 -870 0
v -3570 -870 0
v -3600 -870 0
v -3630 -870 0
v -3660 -870 0
v -3690 -870 0
v -3720 -870 0
v -3750 -870 0
v -3780 -870 0
v -3810 -870 0
v -3840 -870 0
v -3870 -870 0
v -3900 -870 0
v -3930 -870 0
v -3960 -870 0
v -3990 -870 0
v -4020 -870 0
v -4050 -870 0
v -4080 -870 0
v -4110 -870 0
v -4140 -870 0
v -4170 -870 0
v -4200 -870 0
v -4230 -870 0
v -4260 -870 0
v -4290 -870 0
v -4320 -870 0
v -4350 -870 0
v -4380 -870 0
v -4410 -870 0
v -4440 -870 0
v -4470 -870 0
v -4500 -870 0
v -4530 -870 0
v -4560 -870 0
v -4590 -870 0
v -4620 -870 0
v -4650 -870 0
v -4680 -870 0
v -4710 -870 0
v -4740 -870 0
v -3420 -900 0
v -3450 -900 0
v -3480 -900 0
v -3510 -900 0
v -3540 -900 0
v -3570 -900 0
v -3600 -900 0
v -3630 -900 0
v -3660 -900 0
v -3690 -900 0
v -3720 -900 0
v -3750 -900 0
v -3780 -900 0
v -3810 -900 0
v -3840 -900 0
v -3870 -900 0
v -3900 -900 0
v -3930 -900 0
v -3960 -900 0
v -3990 -900 0
v -4020 -900 0
v -4050 -900 0
v -4080 -900 0
v -4110 -900 0
v -4140 -900 0
v -4170 -900 0
v -4200 -900 0
v -4230 -900 0
v -4260 -900 0
v -4290 -900 0
v -4320 -900 0
v -4350 -900 0
v -4380 -900 0
v -4410 -900 0
v -4440 -900 0
v -4470 -900 0
v -4500 -900 0
v -4530 -900 0
v -4560 -900 0
v -4590 -900 0
v -4620 -900 0
v -4650 -900 0
v -4680 -900 0
v -4710 -900 0
v -4740 -900 0

# Texture Coorindates (Count = 100)
vt 0.4395752 0.7540283
vt 0.4979248 0.7540283
vt 0.4979248 0.8709717
vt 0.4395752 0.8709717
vt 0.7520752 0.7540283
vt 0.8104248 0.7540283
vt 0.8104248 0.8709717
vt 0.7520752 0.8709717
vt 0.8145752 0.7540283
vt 0.8729248 0.7540283
vt 0.8729248 0.8709717
vt 0.8145752 0.8709717
vt 0.8770752 0.7540283
vt 0.9354248 0.7540283
vt 0.9354248 0.8709717
vt 0.8770752 0.8709717
vt 0.9395752 0.7540283
vt 0.9979248 0.7540283
vt 0.9979248 0.8709717
vt 0.9395752 0.8709717
vt 0.7520752 0.6290283
vt 0.8104248 0.6290283
vt 0.8104248 0.7459717
vt 0.7520752 0.7459717
vt 0.8145752 0.6290283
vt 0.8729248 0.6290283
vt 0.8729248 0.7459717
vt 0.8145752 0.7459717
vt 0.8770752 0.6290283
vt 0.9354248 0.6290283
vt 0.9354248 0.7459717
vt 0.8770752 0.7459717
vt 0.9395752 0.6290283
vt 0.9979248 0.6290283
vt 0.9979248 0.7459717
vt 0.9395752 0.7459717
vt 0.7520752 0.5040283
vt 0.8104248 0.5040283
vt 0.8104248 0.6209717
vt 0.7520752 0.6209717
vt 0.8145752 0.5040283
vt 0.8729248 0.5040283
vt 0.8729248 0.6209717
vt 0.8145752 0.6209717
vt 0.8770752 0.5040283
vt 0.9354248 0.5040283
vt 0.9354248 0.6209717
vt 0.8770752 0.6209717
vt 0.9395752 0.5040283
vt 0.9979248 0.5040283
vt 0.9979248 0.6209717
vt 0.9395752 0.6209717
vt 0.7520752 0.3790283
vt 0.8104248 0.3790283
vt 0.8104248 0.4959717
vt 0.7520752 0.4959717
vt 0.8145752 0.3790283
vt 0.8729248 0.3790283
vt 0.8729248 0.4959717
vt 0.8145752 0.4959717
vt 0.8770752 0.3790283
vt 0.9354248 0.3790283
vt 0.9354248 0.4959717
vt 0.8770752 0.4959717
vt 0.9395752 0.3790283
vt 0.9979248 0.3790283
vt 0.9979248 0.4959717
vt 0.9395752 0.4959717
vt 0.7520752 0.2540283
vt 0.8104248 0.2540283
vt 0.8104248 0.3709717
vt 0.7520752 0.3709717
vt 0.8145752 0.2540283
vt 0.8729248 0.2540283
vt 0.8729248 0.3709717
vt 0.8145752 0.3709717
vt 0.8770752 0.2540283
vt 0.9354248 0.2540283
vt 0.9354248 0.3709717
vt 0.8770752 0.3709717
vt 0.9395752 0.2540283
vt 0.9979248 0.2540283
vt 0.9979248 0.3709717
vt 0.9395752 0.3709717
vt 0.7520752 0.1290283
vt 0.8104248 0.1290283
vt 0.8104248 0.2459717
vt 0.7520752 0.2459717
vt 0.8145752 0.1290283
vt 0.8729248 0.1290283
vt 0.8729248 0.2459717
vt 0.8145752 0.2459717
vt 0.8770752 0.1290283
vt 0.9354248 0.1290283
vt 0.9354248 0.2459717
vt 0.8770752 0.2459717
vt 0.9395752 0.1290283
vt 0.9979248 0.1290283
vt 0.9979248 0.2459717
vt 0.9395752 0.2459717

# Normal
vn 0 0 -1

# Groups (Count = 2)
g mesh_[00]_[00]
f  1/1/1  2/2/1  3/3/1  4/4/1 
f  2/1/1  5/2/1  6/3/1  3/4/1 
f  5/1/1  7/2/1  8/3/1  6/4/1 
f  7/1/1  9/2/1  10/3/1  8/4/1 
f  9/1/1  11/2/1  12/3/1  10/4/1 
f  11/1/1  13/2/1  14/3/1  12/4/1 
f  13/1/1  15/2/1  16/3/1  14/4/1 
f  15/1/1  17/2/1  18/3/1  16/4/1 
f  17/1/1  19/2/1  20/3/1  18/4/1 
f  19/1/1  21/2/1  22/3/1  20/4/1 
f  21/1/1  23/2/1  24/3/1  22/4/1 
f  23/1/1  25/2/1  26/3/1  24/4/1 
f  25/1/1  27/2/1  28/3/1  26/4/1 
f  27/1/1  29/2/1  30/3/1  28/4/1 
f  29/1/1  31/2/1  32/3/1  30/4/1 
f  31/1/1  33/2/1  34/3/1  32/4/1 
f  33/1/1  35/2/1  36/3/1  34/4/1 
f  35/1/1  37/2/1  38/3/1  36/4/1 
f  37/1/1  39/2/1  40/3/1  38/4/1 
f  39/1/1  41/2/1  42/3/1  40/4/1 
f  41/1/1  43/2/1  44/3/1  42/4/1 
f  43/1/1  45/2/1  46/3/1  44/4/1 
f  45/1/1  47/2/1  48/3/1  46/4/1 
f  47/1/1  49/2/1  50/3/1  48/4/1 
f  49/1/1  51/2/1  52/3/1  50/4/1 
f  51/1/1  53/2/1  54/3/1  52/4/1 
f  53/1/1  55/2/1  56/3/1  54/4/1 
f  55/1/1  57/2/1  58/3/1  56/4/1 
f  57/1/1  59/2/1  60/3/1  58/4/1 
f  59/1/1  61/2/1  62/3/1  60/4/1 
f  61/1/1  63/2/1  64/3/1  62/4/1 
f  63/1/1  65/2/1  66/3/1  64/4/1 
f  65/1/1  67/2/1  68/3/1  66/4/1 
f  67/1/1  69/2/1  70/3/1  68/4/1 
f  69/1/1  71/2/1  72/3/1  70/4/1 
f  71/1/1  73/2/1  74/3/1  72/4/1 
f  73/1/1  75/2/1  76/3/1  74/4/1 
f  75/1/1  77/2/1  78/3/1  76/4/1 
f  77/1/1  79/2/1  80/3/1  78/4/1 
f  79/1/1  81/2/1  82/3/1  80/4/1 
f  81/1/1  83/2/1  84/3/1  82/4/1 
f  83/1/1  85/2/1  86/3/1  84/4/1 
f  85/1/1  87/2/1  88/3/1  86/4/1 
f  87/1/1  89/2/1  90/3/1  88/4/1 
g mesh_[01]_[01]
f  4/5/1  3/6/1  91/7/1  92/8/1 
f  3/9/1  6/10/1  93/11/1  91/12/1 
f  6/13/1  8/14/1  94/15/1  93/16/1 
f  8/17/1  10/18/1  95/19/1  94/20/1 
f  10/5/1  12/6/1  96/7/1  95/8/1 
f  12/9/1  14/10/1  97/11/1  96/12/1 
f  14/13/1  16/14/1  98/15/1  97/16/1 
f  16/17/1  18/18/1  99/19/1  98/20/1 
f  18/5/1  20/6/1  100/7/1  99/8/1 
f  20/9/1  22/10/1  101/11/1  100/12/1 
f  22/13/1  24/14/1  102/15/1  101/16/1 
f  24/17/1  26/18/1  103/19/1  102/20/1 
f  26/5/1  28/6/1  104/7/1  103/8/1 
f  28/9/1  30/10/1  105/11/1  104/12/1 
f  30/13/1  32/14/1  106/15/1  105/16/1 
f  32/17/1  34/18/1  107/19/1  106/20/1 
f  34/5/1  36/6/1  108/7/1  107/8/1 
f  36/9/1  38/10/1  109/11/1  108/12/1 
f  38/13/1  40/14/1  110/15/1  109/16/1 
f  40/17/1  42/18/1  111/19/1  110/20/1 
f  42/5/1  44/6/1  112/7/1  111/8/1 
f  44/9/1  46/10/1  113/11/1  112/12/1 
f  46/13/1  48/14/1  114/15/1  113/16/1 
f  48/17/1  50/18/1  115/19/1  114/20/1 
f  50/5/1  52/6/1  116/7/1  115/8/1 
f  52/9/1  54/10/1  117/11/1  116/12/1 
f  54/13/1  56/14/1  118/15/1  117/16/1 
f  56/17/1  58/18/1  119/19/1  118/20/1 
f  58/5/1  60/6/1  120/7/1  119/8/1 
f  60/9/1  62/10/1  121/11/1  120/12/1 
f  62/13/1  64/14/1  122/15/1  121/16/1 
f  64/17/1  66/18/1  123/19/1  122/20/1 
f  66/5/1  68/6/1  124/7/1  123/8/1 
f  68/9/1  70/10/1  125/11/1  124/12/1 
f  70/13/1  72/14/1  126/15/1  125/16/1 
f  72/17/1  74/18/1  127/19/1  126/20/1 
f  74/5/1  76/6/1  128/7/1  127/8/1 
f  76/9/1  78/10/1  129/11/1  128/12/1 
f  78/13/1  80/14/1  130/15/1  129/16/1 
f  80/17/1  82/18/1  131/19/1  130/20/1 
f  82/5/1  84/6/1  132/7/1  131/8/1 
f  84/9/1  86/10/1  133/11/1  132/12/1 
f  86/13/1  88/14/1  134/15/1  133/16/1 
f  88/17/1  90/18/1  135/19/1  134/20/1 
f  1/21/1  2/22/1  3/23/1  4/24/1 
f  2/25/1  5/26/1  6/27/1  3/28/1 
f  5/29/1  7/30/1  8/31/1  6/32/1 
f  7/33/1  9/34/1  10/35/1  8/36/1 
f  9/21/1  11/22/1  12/23/1  10/24/1 
f  11/25/1  13/26/1  14/27/1  12/28/1 
f  13/29/1  15/30/1  16/31/1  14/32/1 
f  15/33/1  17/34/1  18/35/1  16/36/1 
f  17/21/1  19/22/1  20/23/1  18/24/1 
f  19/25/1  21/26/1  22/27/1  20/28/1 
f  21/29/1  23/30/1  24/31/1  22/32/1 
f  23/33/1  25/34/1  26/35/1  24/36/1 
f  25/21/1  27/22/1  28/23/1  26/24/1 
f  27/25/1  29/26/1  30/27/1  28/28/1 
f  29/29/1  31/30/1  32/31/1  30/32/1 
f  31/33/1  33/34/1  34/35/1  32/36/1 
f  33/21/1  35/22/1  36/23/1  34/24/1 
f  35/25/1  37/26/1  38/27/1  36/28/1 
f  37/29/1  39/30/1  40/31/1  38/32/1 
f  39/33/1  41/34/1  42/35/1  40/36/1 
f  41/21/1  43/22/1  44/23/1  42/24/1 
f  43/25/1  45/26/1  46/27/1  44/28/1 
f  45/29/1  47/30/1  48/31/1  46/32/1 
f  47/33/1  49/34/1  50/35/1  48/36/1 
f  49/21/1  51/22/1  52/23/1  50/24/1 
f  51/25/1  53/26/1  54/27/1  52/28/1 
f  53/29/1  55/30/1  56/31/1  54/32/1 
f  55/33/1  57/34/1  58/35/1  56/36/1 
f  57/21/1  59/22/1  60/23/1  58/24/1 
f  59/25/1  61/26/1  62/27/1  60/28/1 
f  61/29/1  63/30/1  64/31/1  62/32/1 
f  63/33/1  65/34/1  66/35/1  64/36/1 
f  65/21/1  67/22/1  68/23/1  66/24/1 
f  67/25/1  69/26/1  70/27/1  68/28/1 
f  69/29/1  71/30/1  72/31/1  70/32/1 
f  71/33/1  73/34/1  74/35/1  72/36/1 
f  73/21/1  75/22/1  76/23/1  74/24/1 
f  75/25/1  77/26/1  78/27/1  76/28/1 
f  77/29/1  79/30/1  80/31/1  78/32/1 
f  79/33/1  81/34/1  82/35/1  80/36/1 
f  81/21/1  83/22/1  84/23/1  82/24/1 
f  83/25/1  85/26/1  86/27/1  84/28/1 
f  85/29/1  87/30/1  88/31/1  86/32/1 
f  87/33/1  89/34/1  90/35/1  88/36/1 
f  136/37/1  137/38/1  2/39/1  1/40/1 
f  137/41/1  138/42/1  5/43/1  2/44/1 
f  138/45/1  139/46/1  7/47/1  5/48/1 
f  139/49/1  140/50/1  9/51/1  7/52/1 
f  140/37/1  141/38/1  11/39/1  9/40/1 
f  141/41/1  142/42/1  13/43/1  11/44/1 
f  142/45/1  143/46/1  15/47/1  13/48/1 
f  143/49/1  144/50/1  17/51/1  15/52/1 
f  144/37/1  145/38/1  19/39/1  17/40/1 
f  145/41/1  146/42/1  21/43/1  19/44/1 
f  146/45/1  147/46/1  23/47/1  21/48/1 
f  147/49/1  148/50/1  25/51/1  23/52/1 
f  148/37/1  149/38/1  27/39/1  25/40/1 
f  149/41/1  150/42/1  29/43/1  27/44/1 
f  150/45/1  151/46/1  31/47/1  29/48/1 
f  151/49/1  152/50/1  33/51/1  31/52/1 
f  152/37/1  153/38/1  35/39/1  33/40/1 
f  153/41/1  154/42/1  37/43/1  35/44/1 
f  154/45/1  155/46/1  39/47/1  37/48/1 
f  155/49/1  156/50/1  41/51/1  39/52/1 
f  156/37/1  157/38/1  43/39/1  41/40/1 
f  157/41/1  158/42/1  45/43/1  43/44/1 
f  158/45/1  159/46/1  47/47/1  45/48/1 
f  159/49/1  160/50/1  49/51/1  47/52/1 
f  160/37/1  161/38/1  51/39/1  49/40/1 
f  161/41/1  162/42/1  53/43/1  51/44/1 
f  162/45/1  163/46/1  55/47/1  53/48/1 
f  163/49/1  164/50/1  57/51/1  55/52/1 
f  164/37/1  165/38/1  59/39/1  57/40/1 
f  165/41/1  166/42/1  61/43/1  59/44/1 
f  166/45/1  167/46/1  63/47/1  61/48/1 
f  167/49/1  168/50/1  65/51/1  63/52/1 
f  168/37/1  169/38/1  67/39/1  65/40/1 
f  169/41/1  170/42/1  69/43/1  67/44/1 
f  170/45/1  171/46/1  71/47/1  69/48/1 
f  171/49/1  172/50/1  73/51/1  71/52/1 
f  172/37/1  173/38/1  75/39/1  73/40/1 
f  173/41/1  174/42/1  77/43/1  75/44/1 
f  174/45/1  175/46/1  79/47/1  77/48/1 
f  175/49/1  176/50/1  81/51/1  79/52/1 
f  176/37/1  177/38/1  83/39/1  81/40/1 
f  177/41/1  178/42/1  85/43/1  83/44/1 
f  178/45/1  179/46/1  87/47/1  85/48/1 
f  179/49/1  180/50/1  89/51/1  87/52/1 
f  181/53/1  182/54/1  137/55/1  136/56/1 
f  182/57/1  183/58/1  138/59/1  137/60/1 
f  183/61/1  184/62/1  139/63/1  138/64/1 
f  184/65/1  185/66/1  140/67/1  139/68/1 
f  185/53/1  186/54/1  141/55/1  140/56/1 
f  186/57/1  187/58/1  142/59/1  141/60/1 
f  187/61/1  188/62/1  143/63/1  142/64/1 
f  188/65/1  189/66/1  144/67/1  143/68/1 
f  189/53/1  190/54/1  145/55/1  144/56/1 
f  190/57/1  191/58/1  146/59/1  145/60/1 
f  191/61/1  192/62/1  147/63/1  146/64/1 
f  192/65/1  193/66/1  148/67/1  147/68/1 
f  193/53/1  194/54/1  149/55/1  148/56/1 
f  194/57/1  195/58/1  150/59/1  149/60/1 
f  195/61/1  196/62/1  151/63/1  150/64/1 
f  196/65/1  197/66/1  152/67/1  151/68/1 
f  197/53/1  198/54/1  153/55/1  152/56/1 
f  198/57/1  199/58/1  154/59/1  153/60/1 
f  199/61/1  200/62/1  155/63/1  154/64/1 
f  200/65/1  201/66/1  156/67/1  155/68/1 
f  201/53/1  202/54/1  157/55/1  156/56/1 
f  202/57/1  203/58/1  158/59/1  157/60/1 
f  203/61/1  204/62/1  159/63/1  158/64/1 
f  204/65/1  205/66/1  160/67/1  159/68/1 
f  205/53/1  206/54/1  161/55/1  160/56/1 
f  206/57/1  207/58/1  162/59/1  161/60/1 
f  207/61/1  208/62/1  163/63/1  162/64/1 
f  208/65/1  209/66/1  164/67/1  163/68/1 
f  209/53/1  210/54/1  165/55/1  164/56/1 
f  210/57/1  211/58/1  166/59/1  165/60/1 
f  211/61/1  212/62/1  167/63/1  166/64/1 
f  212/65/1  213/66/1  168/67/1  167/68/1 
f  213/53/1  214/54/1  169/55/1  168/56/1 
f  214/57/1  215/58/1  170/59/1  169/60/1 
f  215/61/1  216/62/1  171/63/1  170/64/1 
f  216/65/1  217/66/1  172/67/1  171/68/1 
f  217/53/1  218/54/1  173/55/1  172/56/1 
f  218/57/1  219/58/1  174/59/1  173/60/1 
f  219/61/1  220/62/1  175/63/1  174/64/1 
f  220/65/1  221/66/1  176/67/1  175/68/1 
f  221/53/1  222/54/1  177/55/1  176/56/1 
f  222/57/1  223/58/1  178/59/1  177/60/1 
f  223/61/1  224/62/1  179/63/1  178/64/1 
f  224/65/1  225/66/1  180/67/1  179/68/1 
f  226/69/1  227/70/1  182/71/1  181/72/1 
f  227/73/1  228/74/1  183/75/1  182/76/1 
f  228/77/1  229/78/1  184/79/1  183/80/1 
f  229/81/1  230/82/1  185/83/1  184/84/1 
f  230/69/1  231/70/1  186/71/1  185/72/1 
f  231/73/1  232/74/1  187/75/1  186/76/1 
f  232/77/1  233/78/1  188/79/1  187/80/1 
f  233/81/1  234/82/1  189/83/1  188/84/1 
f  234/69/1  235/70/1  190/71/1  189/72/1 
f  235/73/1  236/74/1  191/75/1  190/76/1 
f  236/77/1  237/78/1  192/79/1  191/80/1 
f  237/81/1  238/82/1  193/83/1  192/84/1 
f  238/69/1  239/70/1  194/71/1  193/72/1 
f  239/73/1  240/74/1  195/75/1  194/76/1 
f  240/77/1  241/78/1  196/79/1  195/80/1 
f  241/81/1  242/82/1  197/83/1  196/84/1 
f  242/69/1  243/70/1  198/71/1  197/72/1 
f  243/73/1  244/74/1  199/75/1  198/76/1 
f  244/77/1  245/78/1  200/79/1  199/80/1 
f  245/81/1  246/82/1  201/83/1  200/84/1 
f  246/69/1  247/70/1  202/71/1  201/72/1 
f  247/73/1  248/74/1  203/75/1  202/76/1 
f  248/77/1  249/78/1  204/79/1  203/80/1 
f  249/81/1  250/82/1  205/83/1  204/84/1 
f  250/69/1  251/70/1  206/71/1  205/72/1 
f  251/73/1  252/74/1  207/75/1  206/76/1 
f  252/77/1  253/78/1  208/79/1  207/80/1 
f  253/81/1  254/82/1  209/83/1  208/84/1 
f  254/69/1  255/70/1  210/71/1  209/72/1 
f  255/73/1  256/74/1  211/75/1  210/76/1 
f  256/77/1  257/78/1  212/79/1  211/80/1 
f  257/81/1  258/82/1  213/83/1  212/84/1 
f  258/69/1  259/70/1  214/71/1  213/72/1 
f  259/73/1  260/74/1  215/75/1  214/76/1 
f  260/77/1  261/78/1  216/79/1  215/80/1 
f  261/81/1  262/82/1  217/83/1  216/84/1 
f  262/69/1  263/70/1  218/71/1  217/72/1 
f  263/73/1  264/74/1  219/75/1  218/76/1 
f  264/77/1  265/78/1  220/79/1  219/80/1 
f  265/81/1  266/82/1  221/83/1  220/84/1 
f  266/69/1  267/70/1  222/71/1  221/72/1 
f  267/73/1  268/74/1  223/75/1  222/76/1 
f  268/77/1  269/78/1  224/79/1  223/80/1 
f  269/81/1  270/82/1  225/83/1  224/84/1 
f  271/85/1  272/86/1  227/87/1  226/88/1 
f  272/89/1  273/90/1  228/91/1  227/92/1 
f  273/93/1  274/94/1  229/95/1  228/96/1 
f  274/97/1  275/98/1  230/99/1  229/100/1 
f  275/85/1  276/86/1  231/87/1  230/88/1 
f  276/89/1  277/90/1  232/91/1  231/92/1 
f  277/93/1  278/94/1  233/95/1  232/96/1 
f  278/97/1  279/98/1  234/99/1  233/100/1 
f  279/85/1  280/86/1  235/87/1  234/88/1 
f  280/89/1  281/90/1  236/91/1  235/92/1 
f  281/93/1  282/94/1  237/95/1  236/96/1 
f  282/97/1  283/98/1  238/99/1  237/100/1 
f  283/85/1  284/86/1  239/87/1  238/88/1 
f  284/89/1  285/90/1  240/91/1  239/92/1 
f  285/93/1  286/94/1  241/95/1  240/96/1 
f  286/97/1  287/98/1  242/99/1  241/100/1 
f  287/85/1  288/86/1  243/87/1  242/88/1 
f  288/89/1  289/90/1  244/91/1  243/92/1 
f  289/93/1  290/94/1  245/95/1  244/96/1 
f  290/97/1  291/98/1  246/99/1  245/100/1 
f  291/85/1  292/86/1  247/87/1  246/88/1 
f  292/89/1  293/90/1  248/91/1  247/92/1 
f  293/93/1  294/94/1  249/95/1  248/96/1 
f  294/97/1  295/98/1  250/99/1  249/100/1 
f  295/85/1  296/86/1  251/87/1  250/88/1 
f  296/89/1  297/90/1  252/91/1  251/92/1 
f  297/93/1  298/94/1  253/95/1  252/96/1 
f  298/97/1  299/98/1  254/99/1  253/100/1 
f  299/85/1  300/86/1  255/87/1  254/88/1 
f  300/89/1  301/90/1  256/91/1  255/92/1 
f  301/93/1  302/94/1  257/95/1  256/96/1 
f  302/97/1  303/98/1  258/99/1  257/100/1 
f  303/85/1  304/86/1  259/87/1  258/88/1 
f  304/89/1  305/90/1  260/91/1  259/92/1 
f  305/93/1  306/94/1  261/95/1  260/96/1 
f  306/97/1  307/98/1  262/99/1  261/100/1 
f  307/85/1  308/86/1  263/87/1  262/88/1 
f  308/89/1  309/90/1  264/91/1  263/92/1 
f  309/93/1  310/94/1  265/95/1  264/96/1 
f  310/97/1  311/98/1  266/99/1  265/100/1 
f  311/85/1  312/86/1  267/87/1  266/88/1 
f  312/89/1  313/90/1  268/91/1  267/92/1 
f  313/93/1  314/94/1  269/95/1  268/96/1 
f  314/97/1  315/98/1  270/99/1  269/100/1 
